<svg width="512" height="512" viewBox="0 0 512 512" fill="none" xmlns="http://www.w3.org/2000/svg">
<path d="M212.001 183C223.047 183 232.001 191.954 232.001 203C232.001 214.046 223.047 223 212.001 223C200.955 223 192.001 214.046 192.001 203C192.001 191.954 200.956 183 212.001 183ZM272 203C272 214.046 280.954 223 292 223C303.046 223 312 214.046 312 203C312 191.954 303.046 183 292 183C280.954 183 272 191.954 272 203ZM352 203C352 214.046 360.954 223 372 223C383.046 223 392 214.046 392 203C392 191.954 383.046 183 372 183C360.954 183 352 191.954 352 203ZM510.542 410.503C512.034 414.192 512.391 418.243 511.567 422.136C510.744 426.029 508.778 429.588 505.921 432.358C503.064 435.128 499.445 436.983 495.528 437.685C491.611 438.388 487.574 437.905 483.932 436.3L376.631 389C363.174 394.142 349.264 398.01 335.084 400.551C320.541 424.47 299.797 444.724 274.579 459.468C246.425 475.927 213.919 484.722 180.482 484.975C179.991 485.011 179.5 485.05 179 485.05C155.882 485.05 133.485 481.057 112.297 473.17L28.0679 510.3C24.4269 511.906 20.3892 512.389 16.4719 511.687C12.5547 510.985 8.93623 509.129 6.07999 506.358C3.22272 503.588 1.25673 500.029 0.433543 496.136C-0.389647 492.243 -0.0326019 488.192 1.459 484.503L30.6709 412.241C10.564 384.864 0.00100036 353.052 0.00100036 319.524C0.00100036 265.851 27.8359 216.023 74.7929 184.927C79.1238 137.108 101.452 92.7598 138.784 58.5919C180.067 20.809 234.835 0 293 0C351.166 0 405.935 20.809 447.217 58.5929C488.994 96.8278 512 147.806 512 202.136C512 211.127 511.212 221.361 509.781 230.951C508.152 241.876 497.975 249.415 487.049 247.781C476.124 246.151 468.589 235.974 470.219 225.049C471.35 217.463 472 209.111 472 202.136C472 112.734 391.701 39.9999 293 39.9999C194.3 39.9999 114.001 112.734 114.001 202.136C114.001 280.436 185.928 364.271 293 364.271C319.604 364.271 345.216 359.099 369.124 348.898C371.643 347.824 374.355 347.278 377.093 347.294C379.831 347.311 382.536 347.889 385.041 348.993L454.999 379.832L431.444 321.566C427.304 311.325 432.25 299.668 442.491 295.528C452.731 291.386 464.389 296.335 468.529 306.574L510.542 410.503ZM281.637 404.002C226.233 401.398 174.923 379.77 136.132 342.437C104.959 312.435 84.2938 274.243 76.9698 234.319C53.4459 257.28 40.0009 287.563 40.0009 319.524C40.0009 347.45 49.9559 373.889 68.7909 395.986C71.1626 398.769 72.7264 402.148 73.312 405.757C73.8977 409.366 73.483 413.066 72.1129 416.456L57.0039 453.831L103.841 433.185C106.346 432.08 109.051 431.502 111.789 431.485C114.527 431.469 117.239 432.015 119.757 433.09C138.114 440.922 157.77 444.936 178.192 445.04C178.463 445.029 178.729 444.999 179.002 444.999C218.402 444.999 255.625 429.607 281.637 404.002Z" fill="black"/>
</svg>
